<svg xmlns="http://www.w3.org/2000/svg" width="163" height="60">
  <g fill="currentColor">
    <path
      opacity=".6"
      d="M58.471 7.19a6.65 6.65 0 0 0-6.65-6.65H20.472a6.65 6.65 0 0 0-6.651 6.65v31.352a6.648 6.648 0 0 0 6.651 6.65h31.349a6.648 6.648 0 0 0 6.65-6.65V7.19z"
    />
    <path
      opacity=".81"
      d="M58.217 49.558a1.51 1.51 0 0 0-1.51-1.509H49.58c-.833 0-1.512.675-1.512 1.51v7.127c0 .834.679 1.511 1.512 1.511h7.127c.833 0 1.51-.677 1.51-1.511v-7.128zM12.131 1.53a.973.973 0 0 0-.972-.972H6.562a.972.972 0 0 0-.974.972v4.596c0 .54.435.975.974.975h4.597a.973.973 0 0 0 .972-.975V1.529z"
    />
    <path
      opacity=".8"
      d="M36.771 27.598a5.355 5.355 0 0 0-5.357-5.357H6.148A5.356 5.356 0 0 0 .79 27.598v25.265c0 2.961 2.4 5.36 5.357 5.36h25.266a5.358 5.358 0 0 0 5.357-5.36V27.598z"
    />
  </g>
  <path
    fill="currentColor"
    d="M71.685 34.61v10.17l-3.65-.04V17.6h-1.04V14h4.69v13.05q1.16-.9 2.54-1.42 1.37-.51 2.94-.51 1.89 0 3.54.74 1.64.74 2.88 2.04 1.23 1.31 1.95 3.04.73 1.74.73 3.67v10.13h-3.65V34.61q0-1.21-.43-2.29-.42-1.08-1.17-1.87-.74-.79-1.73-1.26t-2.12-.47q-1.12 0-2.13.47-1.02.47-1.76 1.26t-1.17 1.87q-.42 1.08-.42 2.29zm21.46-8.55v18.76h-3.69V26.06h3.69zm0-7.33v4h-3.69v-4h3.69zm26.42 9.31l-2.93 16.24h-3.74l-4.86-10.79-4.81 10.79h-3.69l-2.97-16.24h-.9v-3.55h3.87l2.47 13.86 4.73-10.58h2.66l4.72 10.58 2.52-13.86h3.83v3.55h-.9zm12.42 17.32q-2.08 0-3.76-.76-1.69-.77-2.88-2.16-1.2-1.39-1.85-3.37-.65-1.98-.65-4.42 0-1.79.61-3.57.61-1.78 1.78-3.18 1.16-1.39 2.81-2.25 1.64-.85 3.75-.85 1.89 0 3.52.72 1.61.72 2.79 2 1.16 1.29 1.82 3.06.65 1.78.65 3.9v1.84h-13.95q.13.9.43 1.85.29.94.9 1.73.61.78 1.59 1.3 1 .52 2.44.52.81 0 1.59-.36.79-.36 1.47-.86.67-.49 1.19-1.01.51-.51.74-.83l2.88 2.29q-.14.18-.79.88t-1.71 1.49q-1.06.78-2.43 1.42-1.37.62-2.94.62zm-.19-16.91q-1.97 0-3.26 1.26-1.28 1.26-1.78 2.97h9.95q-.41-1.71-1.6-2.97-1.19-1.26-3.31-1.26zm21.06 16.46q-2.6 0-4.85-1.39v1.8h-3.56V17.78h-2.11v-3.55h5.67v11.88q2.25-1.4 4.85-1.4 1.99 0 3.74.79 1.76.79 3.06 2.16 1.31 1.37 2.07 3.22.77 1.84.77 3.91 0 2.11-.77 3.94-.76 1.82-2.07 3.22-1.3 1.39-3.06 2.18-1.75.78-3.74.78zm0-3.55q1.27 0 2.37-.52t1.93-1.39q.84-.88 1.31-2.09.47-1.22.47-2.57 0-1.35-.47-2.54t-1.31-2.07q-.83-.88-1.93-1.4-1.1-.51-2.37-.51-1.43 0-2.72.67-1.28.68-2.13 1.94v7.92q.85 1.16 2.13 1.86 1.29.7 2.72.7z"
  />
</svg>